<svg width="20" height="18" viewBox="0 0 20 18" fill="none" xmlns="http://www.w3.org/2000/svg">
<path d="M19.1667 8.16663H15C14.779 8.16663 14.567 8.25442 14.4107 8.4107C14.2545 8.56698 14.1667 8.77895 14.1667 8.99996V16.5C14.1667 16.721 14.2545 16.9329 14.4107 17.0892C14.567 17.2455 14.779 17.3333 15 17.3333H19.1667C19.3877 17.3333 19.5996 17.2455 19.7559 17.0892C19.9122 16.9329 20 16.721 20 16.5V8.99996C20 8.77895 19.9122 8.56698 19.7559 8.4107C19.5996 8.25442 19.3877 8.16663 19.1667 8.16663ZM19.1667 15.6666H15V9.83329H19.1667V15.6666ZM16.6667 0.666626H1.66667C0.741667 0.666626 0 1.40829 0 2.33329V12.3333C0 12.7753 0.175595 13.1992 0.488155 13.5118C0.800716 13.8244 1.22464 14 1.66667 14H7.5V15.6666H5.83333V17.3333H12.5V15.6666H10.8333V14H12.5V12.3333H1.66667V2.33329H16.6667V6.49996H18.3333V2.33329C18.3333 1.89127 18.1577 1.46734 17.8452 1.15478C17.5326 0.842221 17.1087 0.666626 16.6667 0.666626ZM9.975 6.49996L9.16667 3.99996L8.35833 6.49996H5.83333L7.89167 7.96663L7.10833 10.3916L9.16667 8.89163L11.225 10.3916L10.4417 7.96663L12.5 6.49996H9.975Z" fill="#FBFDFF"/>
</svg>
