<svg width="15" height="20" viewBox="0 0 15 20" fill="none" xmlns="http://www.w3.org/2000/svg">
<path d="M11.4166 10.8334C9.83329 10.8334 8.49996 12.175 8.49996 13.75C8.49996 15.925 11.4166 19.1667 11.4166 19.1667C11.4166 19.1667 14.3333 15.925 14.3333 13.75C14.3333 12.175 13 10.8334 11.4166 10.8334ZM11.4166 14.8417C10.8333 14.8417 10.4166 14.3417 10.4166 13.8417C10.4166 13.2584 10.9166 12.8417 11.4166 12.8417C11.9166 12.8417 12.4166 13.3334 12.4166 13.8417C12.5 14.3417 12 14.8417 11.4166 14.8417ZM9.25829 19.1667H1.83329C1.39127 19.1667 0.967342 18.9911 0.654781 18.6786C0.342221 18.366 0.166626 17.9421 0.166626 17.5V2.50004C0.166626 1.57504 0.908293 0.833374 1.83329 0.833374H10.1666C10.6087 0.833374 11.0326 1.00897 11.3451 1.32153C11.6577 1.63409 11.8333 2.05801 11.8333 2.50004V9.19171C11.7 9.16671 11.5583 9.16671 11.4166 9.16671C11 9.16671 10.5833 9.23337 10.1666 9.35004V4.16671H1.83329V15.8334H7.28329C7.78329 17.0834 8.59996 18.3084 9.25829 19.1667Z" fill="#FBFDFF"/>
</svg>
