<svg width="14" height="11" viewBox="0 0 14 11" fill="none" xmlns="http://www.w3.org/2000/svg">
<path d="M3.22867 0.79196C3.29065 0.853875 3.33983 0.927401 3.37338 1.00833C3.40693 1.08926 3.42419 1.17602 3.42419 1.26363C3.42419 1.35124 3.40693 1.43799 3.37338 1.51892C3.33983 1.59985 3.29065 1.67338 3.22867 1.73529C2.22829 2.73584 1.6663 4.09276 1.6663 5.50763C1.6663 6.92249 2.22829 8.27942 3.22867 9.27996C3.29057 9.3419 3.33966 9.41543 3.37314 9.49634C3.40662 9.57725 3.42384 9.66396 3.4238 9.75153C3.42377 9.8391 3.4065 9.9258 3.37296 10.0067C3.33942 10.0876 3.29028 10.1611 3.22834 10.223C3.1664 10.2849 3.09287 10.3339 3.01196 10.3674C2.93105 10.4009 2.84433 10.4181 2.75677 10.4181C2.6692 10.4181 2.5825 10.4008 2.50161 10.3672C2.42072 10.3337 2.34723 10.2846 2.28534 10.2226C-0.318664 7.61863 -0.318664 3.39596 2.28534 0.79196C2.34725 0.729976 2.42078 0.680803 2.50171 0.647253C2.58264 0.613704 2.66939 0.596436 2.757 0.596436C2.84461 0.596436 2.93136 0.613704 3.0123 0.647253C3.09323 0.680803 3.16675 0.729976 3.22867 0.79196ZM11.716 0.79196C14.32 3.39663 14.32 7.61863 11.716 10.2226C11.5903 10.3441 11.4219 10.4113 11.2471 10.4097C11.0723 10.4082 10.9051 10.3381 10.7815 10.2145C10.6579 10.0909 10.5877 9.92369 10.5862 9.74889C10.5847 9.5741 10.6519 9.40569 10.7733 9.27996C11.7737 8.27942 12.3357 6.92249 12.3357 5.50763C12.3357 4.09276 11.7737 2.73584 10.7733 1.73529C10.6482 1.61029 10.5779 1.44071 10.5779 1.26386C10.5778 1.08702 10.648 0.917387 10.773 0.792293C10.898 0.667199 11.0676 0.596887 11.2444 0.596825C11.4213 0.596762 11.5909 0.666955 11.716 0.79196ZM5.20667 2.70796C5.33165 2.83298 5.40186 3.00252 5.40186 3.17929C5.40186 3.35607 5.33165 3.52561 5.20667 3.65063C4.96397 3.8933 4.77145 4.1814 4.6401 4.49849C4.50875 4.81557 4.44115 5.15542 4.44115 5.49863C4.44115 5.84184 4.50875 6.18169 4.6401 6.49877C4.77145 6.81585 4.96397 7.10395 5.20667 7.34663C5.27034 7.40812 5.32113 7.48169 5.35607 7.56302C5.39101 7.64436 5.4094 7.73184 5.41017 7.82036C5.41094 7.90888 5.39407 7.99667 5.36055 8.0786C5.32703 8.16053 5.27753 8.23496 5.21493 8.29756C5.15234 8.36015 5.0779 8.40965 4.99597 8.44317C4.91404 8.4767 4.82626 8.49356 4.73774 8.49279C4.64922 8.49202 4.56174 8.47363 4.4804 8.43869C4.39906 8.40376 4.3255 8.35297 4.264 8.28929C3.52389 7.54915 3.1081 6.54532 3.1081 5.49863C3.1081 4.45193 3.52389 3.4481 4.264 2.70796C4.38902 2.58298 4.55856 2.51277 4.73534 2.51277C4.91211 2.51277 5.08165 2.58298 5.20667 2.70796ZM9.846 2.70796C10.5861 3.4481 11.0019 4.45193 11.0019 5.49863C11.0019 6.54532 10.5861 7.54915 9.846 8.28929C9.78411 8.35123 9.71062 8.40038 9.62973 8.43391C9.54884 8.46745 9.46214 8.48473 9.37457 8.48476C9.28701 8.48479 9.20029 8.46758 9.11938 8.43409C9.03847 8.40061 8.96494 8.35152 8.903 8.28963C8.84106 8.22773 8.79192 8.15424 8.75838 8.07335C8.72484 7.99246 8.70757 7.90576 8.70753 7.8182C8.7075 7.73063 8.72472 7.64392 8.7582 7.563C8.79168 7.48209 8.84077 7.40857 8.90267 7.34663C9.14537 7.10395 9.33789 6.81585 9.46924 6.49877C9.60059 6.18169 9.66819 5.84184 9.66819 5.49863C9.66819 5.15542 9.60059 4.81557 9.46924 4.49849C9.33789 4.1814 9.14537 3.8933 8.90267 3.65063C8.77767 3.52553 8.70747 3.3559 8.70753 3.17906C8.7076 3.00221 8.77791 2.83263 8.903 2.70763C9.0281 2.58262 9.19773 2.51243 9.37457 2.51249C9.55142 2.51255 9.721 2.58287 9.846 2.70796ZM7.05467 4.55463C7.18599 4.55463 7.31603 4.58049 7.43735 4.63075C7.55868 4.681 7.66892 4.75466 7.76178 4.84752C7.85464 4.94038 7.92829 5.05062 7.97855 5.17194C8.0288 5.29327 8.05467 5.4233 8.05467 5.55463C8.05467 5.68595 8.0288 5.81598 7.97855 5.93731C7.92829 6.05864 7.85464 6.16887 7.76178 6.26173C7.66892 6.35459 7.55868 6.42825 7.43735 6.47851C7.31603 6.52876 7.18599 6.55463 7.05467 6.55463C6.78945 6.55463 6.5351 6.44927 6.34756 6.26173C6.16003 6.0742 6.05467 5.81984 6.05467 5.55463C6.05467 5.28941 6.16003 5.03506 6.34756 4.84752C6.5351 4.65998 6.78945 4.55463 7.05467 4.55463Z" fill="white"/>
</svg>
