<svg width="14" height="18" viewBox="0 0 14 18" fill="none" xmlns="http://www.w3.org/2000/svg">
<path d="M8.66671 0.666626H2.00004C1.55801 0.666626 1.13409 0.842221 0.821529 1.15478C0.508969 1.46734 0.333374 1.89127 0.333374 2.33329V15.6666C0.333374 16.5916 1.07504 17.3333 2.00004 17.3333H12C12.925 17.3333 13.6667 16.5916 13.6667 15.6666V5.66663L8.66671 0.666626ZM12 15.6666H2.00004V2.33329H7.83337V6.49996H12V15.6666ZM4.50004 10.1083C5.17504 11.4166 6.25004 12.4916 7.55837 13.1666L8.57504 12.1416C8.70837 12.0083 8.89171 11.975 9.05004 12.025C9.56671 12.1916 10.125 12.2916 10.7 12.2916C10.9584 12.2916 11.1667 12.4916 11.1667 12.75V14.375C11.1667 14.625 10.9584 14.8333 10.7 14.8333C6.35837 14.8333 2.83337 11.3083 2.83337 6.96663C2.83337 6.70829 3.04171 6.49996 3.30004 6.49996H4.91671C5.17504 6.49996 5.38337 6.70829 5.38337 6.96663C5.38337 7.54163 5.47504 8.09996 5.64171 8.61663C5.69171 8.77496 5.65837 8.95829 5.52504 9.09163L4.50004 10.1083Z" fill="#FBFDFF"/>
</svg>
