<svg width="20" height="20" viewBox="0 0 20 20" fill="none" xmlns="http://www.w3.org/2000/svg">
<path d="M10 19.9999C8.61667 19.9999 7.31667 19.7375 6.1 19.2129C4.88333 18.6882 3.825 17.9755 2.925 17.0749C2.025 16.1749 1.31267 15.1165 0.788 13.8999C0.263333 12.6832 0.000666667 11.3832 0 9.99988C0 8.61655 0.262667 7.31655 0.788 6.09988C1.31333 4.88321 2.02567 3.82488 2.925 2.92488C3.825 2.02488 4.88333 1.31221 6.1 0.786879C7.31667 0.261546 8.61667 -0.00078747 10 -0.000120803H11V8.27488C11.3 8.45821 11.5417 8.69588 11.725 8.98788C11.9083 9.27988 12 9.61721 12 9.99988C12 10.5499 11.804 11.0209 11.412 11.4129C11.02 11.8049 10.5493 12.0005 10 11.9999C9.45 11.9999 8.979 11.8042 8.587 11.4129C8.195 11.0215 7.99933 10.5505 8 9.99988C8 9.61655 8.09167 9.27488 8.275 8.97488C8.45833 8.67488 8.7 8.44155 9 8.27488V6.12488C8.13333 6.35821 7.41667 6.82921 6.85 7.53788C6.28333 8.24655 6 9.06721 6 9.99988C6 11.0999 6.39167 12.0415 7.175 12.8249C7.95833 13.6082 8.9 13.9999 10 13.9999C11.1 13.9999 12.0417 13.6082 12.825 12.8249C13.6083 12.0415 14 11.0999 14 9.99988C14 9.39988 13.879 8.84588 13.637 8.33788C13.395 7.82988 13.066 7.38388 12.65 6.99988L14.075 5.57488C14.6583 6.12488 15.125 6.77921 15.475 7.53788C15.825 8.29655 16 9.11721 16 9.99988C16 11.6665 15.4167 13.0832 14.25 14.2499C13.0833 15.4165 11.6667 15.9999 10 15.9999C8.33333 15.9999 6.91667 15.4165 5.75 14.2499C4.58333 13.0832 4 11.6665 4 9.99988C4 8.49988 4.475 7.19555 5.425 6.08688C6.375 4.97821 7.56667 4.30755 9 4.07488V2.04988C7.01667 2.29988 5.354 3.17488 4.012 4.67488C2.67 6.17488 1.99933 7.94988 2 9.99988C2 12.2332 2.775 14.1249 4.325 15.6749C5.875 17.2249 7.76667 17.9999 10 17.9999C12.2333 17.9999 14.125 17.2249 15.675 15.6749C17.225 14.1249 18 12.2332 18 9.99988C18 8.84988 17.775 7.77488 17.325 6.77488C16.875 5.77488 16.2583 4.90821 15.475 4.17488L16.9 2.74988C17.85 3.66655 18.6043 4.74588 19.163 5.98788C19.7217 7.22988 20.0007 8.56721 20 9.99988C20 11.3832 19.7373 12.6832 19.212 13.8999C18.6867 15.1165 17.9743 16.1749 17.075 17.0749C16.175 17.9749 15.1167 18.6875 13.9 19.2129C12.6833 19.7382 11.3833 20.0005 10 19.9999Z" fill="white"/>
</svg>
