<svg width="23" height="21" viewBox="0 0 23 21" fill="none" xmlns="http://www.w3.org/2000/svg">
<path d="M21.0833 0H1.91667C1.40833 0 0.920823 0.184374 0.561379 0.512563C0.201934 0.840752 0 1.28587 0 1.75V19.25C0 19.7141 0.201934 20.1592 0.561379 20.4874C0.920823 20.8156 1.40833 21 1.91667 21H21.0833C21.5917 21 22.0792 20.8156 22.4386 20.4874C22.7981 20.1592 23 19.7141 23 19.25V1.75C23 1.28587 22.7981 0.840752 22.4386 0.512563C22.0792 0.184374 21.5917 0 21.0833 0ZM18.2083 11.375H12.4583V16.625C12.4583 16.8571 12.3574 17.0796 12.1776 17.2437C11.9979 17.4078 11.7542 17.5 11.5 17.5C11.2458 17.5 11.0021 17.4078 10.8224 17.2437C10.6426 17.0796 10.5417 16.8571 10.5417 16.625V11.375H4.79167C4.5375 11.375 4.29375 11.2828 4.11402 11.1187C3.9343 10.9546 3.83333 10.7321 3.83333 10.5C3.83333 10.2679 3.9343 10.0454 4.11402 9.88128C4.29375 9.71719 4.5375 9.625 4.79167 9.625H10.5417V4.375C10.5417 4.14294 10.6426 3.92038 10.8224 3.75628C11.0021 3.59219 11.2458 3.5 11.5 3.5C11.7542 3.5 11.9979 3.59219 12.1776 3.75628C12.3574 3.92038 12.4583 4.14294 12.4583 4.375V9.625H18.2083C18.4625 9.625 18.7063 9.71719 18.886 9.88128C19.0657 10.0454 19.1667 10.2679 19.1667 10.5C19.1667 10.7321 19.0657 10.9546 18.886 11.1187C18.7063 11.2828 18.4625 11.375 18.2083 11.375Z" fill="black"/>
</svg>
