<svg width="48" height="48" viewBox="0 0 48 48" fill="none" xmlns="http://www.w3.org/2000/svg">
<g id="Delivery">
<path id="Subtract" fill-rule="evenodd" clip-rule="evenodd" d="M15.155 8.85002L6.74628 13.0544L24.027 22.4147L32.4357 18.2104L15.155 8.85002ZM4.59372 15.087V32.9998C4.59372 33.5324 4.89466 34.0193 5.37108 34.2575L22.5935 42.8688V24.8369L4.59372 15.087ZM25.406 42.8689L42.6289 34.2575C43.1053 34.0193 43.4062 33.5324 43.4062 32.9998V15.8696L36.406 19.3697V25C36.406 25.7766 35.7764 26.4062 34.9997 26.4062C34.2231 26.4062 33.5935 25.7766 33.5935 25V20.776L25.406 24.8697V42.8689ZM42.0007 13.4279L24.6289 4.74197C24.233 4.54402 23.767 4.54402 23.3711 4.74197L18.2256 7.31469L35.5063 16.6751L42.0007 13.4279Z" fill="black"/>
</g>
</svg>
