<svg width="48" height="48" viewBox="0 0 48 48" fill="none" xmlns="http://www.w3.org/2000/svg">
<path fill-rule="evenodd" clip-rule="evenodd" d="M9.00575 5.00558C9.2695 4.74185 9.62723 4.59371 10.0002 4.59375L20.5571 4.59489C20.5852 4.59489 20.6131 4.59572 20.6408 4.59735C21.5914 4.60138 22.5372 4.67422 23.4433 4.83851C27.8692 5.45622 31.5875 7.23806 34.3318 10.0662C37.3818 13.2094 39.1135 17.5263 39.3696 22.6532C39.3888 22.8806 39.3997 23.1087 39.4023 23.3371C39.405 23.3724 39.4063 23.4081 39.4063 23.4441V42C39.4063 42.7766 38.7767 43.4062 38.0001 43.4062H10.0001C9.22341 43.4062 8.59381 42.7766 8.59381 42V6C8.59381 5.62701 8.74199 5.2693 9.00575 5.00558ZM36.5938 24.0988C36.5915 24.0661 36.5904 24.0332 36.5904 24C36.5904 23.6094 36.5813 23.2251 36.5634 22.8471C36.5485 22.6832 36.5275 22.5198 36.5003 22.3573C36.158 20.3072 35.5173 18.8109 34.6404 17.9166C33.8377 17.098 32.6995 16.6409 30.9105 16.9397L28.2317 17.387C27.7836 17.4619 27.3269 17.3156 27.0057 16.9944C26.6844 16.6731 26.5382 16.2165 26.613 15.7684L27.0604 13.0895C27.1203 12.7306 27.1504 12.3673 27.1504 12.0034C27.1504 10.2442 26.4741 9.19793 25.4433 8.52313C24.7998 8.10184 23.9713 7.79754 22.9892 7.61461C22.2013 7.50729 21.3815 7.44079 20.5307 7.41708L19.9808 7.40954C19.9599 7.40925 19.9391 7.40851 19.9184 7.40732L11.4063 7.4064V40.5937H36.5938V24.0988ZM29.7071 9.93C29.875 10.5651 29.9629 11.2564 29.9629 12.0034C29.9629 12.5225 29.92 13.0408 29.8345 13.5528L29.7116 14.2885L30.4473 14.1656C31.8151 13.9372 33.0506 14.0148 34.1378 14.3728C33.6067 13.5121 32.9963 12.7285 32.3134 12.0248C31.5459 11.2338 30.6759 10.5324 29.7071 9.93ZM14.5938 14C14.5938 13.2233 15.2234 12.5937 16.0001 12.5937H22.0001C22.7767 12.5937 23.4063 13.2233 23.4063 14C23.4063 14.7766 22.7767 15.4062 22.0001 15.4062H16.0001C15.2234 15.4062 14.5938 14.7766 14.5938 14ZM14.5938 22C14.5938 21.2233 15.2234 20.5937 16.0001 20.5937H32.0001C32.7767 20.5937 33.4063 21.2233 33.4063 22C33.4063 22.7766 32.7767 23.4062 32.0001 23.4062H16.0001C15.2234 23.4062 14.5938 22.7766 14.5938 22ZM14.5938 28C14.5938 27.2233 15.2234 26.5937 16.0001 26.5937H32.0001C32.7767 26.5937 33.4063 27.2233 33.4063 28C33.4063 28.7766 32.7767 29.4062 32.0001 29.4062H16.0001C15.2234 29.4062 14.5938 28.7766 14.5938 28ZM14.5938 34C14.5938 33.2233 15.2234 32.5937 16.0001 32.5937H32.0001C32.7767 32.5937 33.4063 33.2233 33.4063 34C33.4063 34.7766 32.7767 35.4062 32.0001 35.4062H16.0001C15.2234 35.4062 14.5938 34.7766 14.5938 34Z" fill="black"/>
</svg>
