<svg width="21" height="19" viewBox="0 0 21 19" fill="none" xmlns="http://www.w3.org/2000/svg">
<path opacity="0.977974" d="M4.99073 0.998352C2.78172 0.998352 0.990723 2.78935 0.990723 4.99835V14.9983C0.990723 17.2073 2.78172 18.9983 4.99073 18.9983H14.9907C17.1997 18.9983 18.9907 17.2073 18.9907 14.9983V10.9983C18.9907 10.4463 18.5427 9.99834 17.9907 9.99834C17.4387 9.99834 16.9907 10.4463 16.9907 10.9983V14.9983C16.9907 16.1033 16.0957 16.9983 14.9907 16.9983H4.99073C3.88572 16.9983 2.99072 16.1033 2.99072 14.9983V4.99835C2.99072 3.89335 3.88572 2.99835 4.99073 2.99835H12.9907C13.5427 2.99835 13.9907 2.55035 13.9907 1.99835C13.9907 1.44635 13.5427 0.998352 12.9907 0.998352H4.99073ZM18.9907 1.99835C18.7347 1.99835 18.4667 2.08836 18.2717 2.27936L9.55272 10.8423C9.29572 11.0953 9.03672 11.0773 8.83472 10.7793L7.83472 9.31035C7.52872 8.85935 6.88673 8.72834 6.42873 9.02934C5.96973 9.33034 5.84073 9.95334 6.14673 10.4043L7.14673 11.8733C8.04773 13.2023 9.81072 13.3783 10.9597 12.2483L19.7097 3.65435C20.0997 3.27135 20.0997 2.66336 19.7097 2.27936C19.5147 2.08736 19.2467 1.99835 18.9907 1.99835Z" fill="#2A343D"/>
</svg>
