<svg width="21" height="16" viewBox="0 0 21 16" fill="none" xmlns="http://www.w3.org/2000/svg">
<g id="Vector">
<path id="Vector-3" d="M11.25 6.6C11.25 6.18579 10.9142 5.85 10.5 5.85C10.0858 5.85 9.75 6.18579 9.75 6.6H11.25ZM10.5 15H9.75C9.75 15.2489 9.87345 15.4815 10.0795 15.6211C10.2856 15.7606 10.5475 15.7888 10.7785 15.6964L10.5 15ZM17.5 12.2L17.7785 12.8964C18.0633 12.7825 18.25 12.5067 18.25 12.2H17.5ZM18.25 6.379C18.25 5.96479 17.9142 5.629 17.5 5.629C17.0858 5.629 16.75 5.96479 16.75 6.379H18.25ZM10.9538 6.00288C10.624 5.75224 10.1535 5.81641 9.90288 6.14619C9.65224 6.47597 9.71641 6.94649 10.0462 7.19712L10.9538 6.00288ZM13 8.5L12.5462 9.09712C12.7687 9.26627 13.0669 9.2976 13.3198 9.17842L13 8.5ZM17.8198 7.05742C18.1944 6.88082 18.355 6.43392 18.1784 6.05924C18.0018 5.68456 17.5549 5.52398 17.1802 5.70058L17.8198 7.05742ZM10.2215 5.90364C9.83687 6.05748 9.64981 6.49396 9.80364 6.87854C9.95748 7.26313 10.394 7.45019 10.7785 7.29636L10.2215 5.90364ZM17.7785 4.49636C18.1631 4.34252 18.3502 3.90604 18.1964 3.52146C18.0425 3.13687 17.606 2.94981 17.2215 3.10364L17.7785 4.49636ZM17.2215 4.49636C17.606 4.65019 18.0425 4.46313 18.1964 4.07854C18.3502 3.69396 18.1631 3.25748 17.7785 3.10364L17.2215 4.49636ZM10.7785 0.303642C10.394 0.149807 9.95748 0.336869 9.80364 0.721457C9.64981 1.10604 9.83687 1.54252 10.2215 1.69636L10.7785 0.303642ZM17.8665 3.14562C17.505 2.94323 17.048 3.07214 16.8456 3.43355C16.6432 3.79495 16.7721 4.25199 17.1335 4.45438L17.8665 3.14562ZM20 5.2L20.3199 5.87835C20.5739 5.75855 20.7397 5.50686 20.7495 5.22618C20.7593 4.94549 20.6115 4.68285 20.3665 4.54562L20 5.2ZM17.1801 5.70065C16.8054 5.87733 16.645 6.32427 16.8217 6.69891C16.9983 7.07355 17.4453 7.23403 17.8199 7.05735L17.1801 5.70065ZM3.22146 3.10364C2.83687 3.25748 2.64981 3.69396 2.80364 4.07854C2.95748 4.46313 3.39396 4.65019 3.77854 4.49636L3.22146 3.10364ZM10.7785 1.69636C11.1631 1.54252 11.3502 1.10604 11.1964 0.721457C11.0425 0.336869 10.606 0.149807 10.2215 0.303642L10.7785 1.69636ZM3.86645 4.45438C4.22786 4.25199 4.35677 3.79495 4.15438 3.43355C3.95199 3.07214 3.49495 2.94323 3.13355 3.14562L3.86645 4.45438ZM1 5.2L0.633547 4.54562C0.388497 4.68285 0.240654 4.94549 0.250457 5.22618C0.260259 5.50686 0.426064 5.75855 0.68009 5.87835L1 5.2ZM3.18009 7.05735C3.55473 7.23403 4.00167 7.07355 4.17835 6.69891C4.35503 6.32427 4.19455 5.87733 3.81991 5.70065L3.18009 7.05735ZM3.77854 3.10364C3.39396 2.94981 2.95748 3.13687 2.80364 3.52146C2.64981 3.90604 2.83687 4.34252 3.22146 4.49636L3.77854 3.10364ZM10.2215 7.29636C10.606 7.45019 11.0425 7.26313 11.1964 6.87854C11.3502 6.49396 11.1631 6.05748 10.7785 5.90364L10.2215 7.29636ZM11.25 6.6C11.25 6.18579 10.9142 5.85 10.5 5.85C10.0858 5.85 9.75 6.18579 9.75 6.6H11.25ZM10.5 15L10.2215 15.6964C10.4525 15.7888 10.7144 15.7606 10.9205 15.6211C11.1266 15.4815 11.25 15.2489 11.25 15H10.5ZM3.5 12.2H2.75C2.75 12.5067 2.93671 12.7825 3.22146 12.8964L3.5 12.2ZM4.25 6.379C4.25 5.96479 3.91421 5.629 3.5 5.629C3.08579 5.629 2.75 5.96479 2.75 6.379H4.25ZM10.9538 7.19712C11.2836 6.94649 11.3478 6.47597 11.0971 6.14619C10.8465 5.81641 10.376 5.75224 10.0462 6.00288L10.9538 7.19712ZM8 8.5L7.68024 9.17842C7.9331 9.2976 8.23125 9.26627 8.45381 9.09712L8 8.5ZM3.81976 5.70058C3.44508 5.52398 2.99818 5.68456 2.82158 6.05924C2.64498 6.43392 2.80556 6.88082 3.18024 7.05742L3.81976 5.70058ZM9.75 6.6V15H11.25V6.6H9.75ZM10.7785 15.6964L17.7785 12.8964L17.2215 11.5036L10.2215 14.3036L10.7785 15.6964ZM18.25 12.2V6.379H16.75V12.2H18.25ZM10.0462 7.19712L12.5462 9.09712L13.4538 7.90288L10.9538 6.00288L10.0462 7.19712ZM13.3198 9.17842L17.8198 7.05742L17.1802 5.70058L12.6802 7.82158L13.3198 9.17842ZM10.7785 7.29636L17.7785 4.49636L17.2215 3.10364L10.2215 5.90364L10.7785 7.29636ZM17.7785 3.10364L10.7785 0.303642L10.2215 1.69636L17.2215 4.49636L17.7785 3.10364ZM17.1335 4.45438L19.6335 5.85438L20.3665 4.54562L17.8665 3.14562L17.1335 4.45438ZM19.6801 4.52165L17.1801 5.70065L17.8199 7.05735L20.3199 5.87835L19.6801 4.52165ZM3.77854 4.49636L10.7785 1.69636L10.2215 0.303642L3.22146 3.10364L3.77854 4.49636ZM3.13355 3.14562L0.633547 4.54562L1.36645 5.85438L3.86645 4.45438L3.13355 3.14562ZM0.68009 5.87835L3.18009 7.05735L3.81991 5.70065L1.31991 4.52165L0.68009 5.87835ZM3.22146 4.49636L10.2215 7.29636L10.7785 5.90364L3.77854 3.10364L3.22146 4.49636ZM9.75 6.6V15H11.25V6.6H9.75ZM10.7785 14.3036L3.77854 11.5036L3.22146 12.8964L10.2215 15.6964L10.7785 14.3036ZM4.25 12.2V6.379H2.75V12.2H4.25ZM10.0462 6.00288L7.54619 7.90288L8.45381 9.09712L10.9538 7.19712L10.0462 6.00288ZM8.31976 7.82158L3.81976 5.70058L3.18024 7.05742L7.68024 9.17842L8.31976 7.82158Z" fill="black"/>
</g>
</svg>
